<?xml version="1.0" encoding="utf-8"?>
<!-- Uploaded to: SVG Repo, www.svgrepo.com, Generator: SVG Repo Mixer Tools -->
<svg fill="#000000" width="800px" height="800px" viewBox="0 0 32 32" version="1.1" xmlns="http://www.w3.org/2000/svg">
<title>theater</title>
<path d="M30.523 12.379c-0.115-0.194-0.324-0.322-0.563-0.322-0.025 0-0.049 0.001-0.073 0.004l0.003-0c-0.221 0.005-0.482 0.008-0.743 0.008-3.53 0-6.93-0.559-10.115-1.593l0.231 0.065c0.492-2.094 0.866-4.583 1.044-7.127l0.009-0.153c0.001-0.016 0.002-0.035 0.002-0.053 0-0.414-0.336-0.75-0.75-0.75-0.086 0-0.169 0.014-0.246 0.041l0.005-0.002c-2.883 0.99-6.206 1.562-9.662 1.562-2.63 0-5.182-0.331-7.618-0.954l0.212 0.046c-0.051-0.012-0.109-0.019-0.168-0.019-0.197 0-0.377 0.075-0.512 0.198l0.001-0.001c-0.149 0.138-0.242 0.334-0.242 0.552 0 0.038 0.003 0.076 0.008 0.113l-0-0.004c1.497 10.133 4.822 16.562 8.945 17.419 0.751 4.403 2.528 7.244 5.222 7.966 0.394 0.109 0.846 0.172 1.312 0.172 0.001 0 0.003 0 0.004 0h-0c4.598 0 9.76-6.104 13.779-16.467 0.032-0.080 0.050-0.174 0.050-0.271 0-0.162-0.051-0.312-0.138-0.434l0.002 0.002zM2.999 4.85c2.015 0.451 4.33 0.709 6.705 0.709 3.218 0 6.325-0.474 9.256-1.357l-0.227 0.059c-0.201 2.2-0.518 4.18-0.956 6.113l0.059-0.31c-2.366-0.865-4.386-1.835-6.295-2.973l0.169 0.093c-0.109-0.064-0.241-0.102-0.381-0.102-0.116 0-0.227 0.026-0.325 0.073l0.005-0.002c-0.221 0.107-0.38 0.312-0.419 0.558l-0.001 0.004c-0.037 0.236-0.062 0.461-0.096 0.694-0.040-0.177-0.14-0.326-0.276-0.429l-0.002-0.001c-0.122-0.089-0.275-0.143-0.441-0.143-0.248 0-0.468 0.12-0.605 0.306l-0.001 0.002c-0.334 0.46-0.83 1.009-1.301 1.017h-0.011c-0.444 0-0.917-0.484-1.236-0.893-0.138-0.18-0.354-0.295-0.596-0.295-0.414 0-0.75 0.336-0.75 0.75 0 0.178 0.062 0.341 0.165 0.47l-0.001-0.001c0.525 0.821 1.397 1.38 2.405 1.468l0.012 0.001h0.038c1.071-0.117 1.974-0.738 2.479-1.618l0.008-0.016c0.013-0.024 0.027-0.052 0.038-0.082l0.002-0.005c-0.249 1.823-0.417 3.563-0.49 5.189-0.646 0.419-1.191 0.934-1.629 1.531l-0.012 0.017c-0.095 0.124-0.152 0.282-0.152 0.452 0 0.414 0.336 0.75 0.75 0.75 0.244 0 0.46-0.116 0.597-0.296l0.001-0.002c0.136-0.18 0.266-0.302 0.399-0.451-0 0.026-0 0.057-0 0.089 0 1.255 0.067 2.493 0.197 3.713l-0.013-0.152c-2.463-0.997-5.482-5.32-7.068-14.932zM15.902 27.928c-3.214-0.861-5.635-7.035-3.99-18.901 4.859 2.793 10.67 4.469 16.867 4.544l0.022 0c-4.506 11.086-9.678 15.213-12.898 14.357zM14.007 16.116c0.459-0.373 1.119-0.792 1.62-0.668 0.532 0.131 0.945 0.86 1.198 1.45 0.118 0.269 0.382 0.454 0.689 0.454 0.414 0 0.75-0.336 0.75-0.75 0-0.107-0.022-0.209-0.063-0.301l0.002 0.005c-0.332-1.089-1.149-1.939-2.194-2.308l-0.025-0.008c-0.154-0.025-0.331-0.039-0.511-0.039-0.943 0-1.796 0.383-2.413 1.001l-0 0c-0.17 0.139-0.278 0.348-0.278 0.582 0 0.414 0.336 0.75 0.75 0.75 0.181 0 0.347-0.064 0.476-0.171l-0.001 0.001zM20.645 17.895c0.457-0.372 1.133-0.794 1.617-0.668 0.533 0.131 0.947 0.861 1.199 1.449 0.117 0.27 0.382 0.456 0.69 0.456 0.414 0 0.75-0.336 0.75-0.75 0-0.107-0.022-0.209-0.063-0.301l0.002 0.005c-0.332-1.090-1.151-1.94-2.196-2.309l-0.025-0.008c-0.156-0.025-0.335-0.040-0.518-0.040-0.941 0-1.792 0.383-2.405 1.003l-0 0c-0.17 0.139-0.277 0.348-0.277 0.582 0 0.414 0.336 0.75 0.75 0.75 0.181 0 0.348-0.064 0.478-0.172l-0.001 0.001zM20.027 22.057c-0.539 0.603-1.319 0.981-2.188 0.981-0.056 0-0.112-0.002-0.167-0.005l0.008 0c-0.685-0.154-1.324-0.883-1.902-2.164-0.121-0.262-0.381-0.441-0.684-0.441-0.414 0-0.75 0.336-0.75 0.75 0 0.112 0.024 0.218 0.068 0.313l-0.002-0.005c0.793 1.758 1.754 2.742 2.939 3.010 0.183 0.043 0.394 0.068 0.611 0.068 0.004 0 0.008 0 0.012-0h-0.001c1.186-0.089 2.239-0.593 3.029-1.364l-0.001 0.001c0.162-0.139 0.265-0.343 0.265-0.572 0-0.415-0.336-0.751-0.751-0.751-0.186 0-0.356 0.068-0.487 0.18l0.001-0.001z"></path>
</svg>