<?xml version="1.0" ?><!-- Uploaded to: SVG Repo, www.svgrepo.com, Generator: SVG Repo Mixer Tools -->
<svg fill="#000000" width="800px" height="800px" viewBox="0 0 32 32" id="template" xmlns="http://www.w3.org/2000/svg"><title/><path d="M21.6,16.863a7.7,7.7,0,1,0-11.2,0l0,0a7.638,7.638,0,0,0,11.2,0Zm-.3-9.784a6.93,6.93,0,0,1,1.659,4.176H19.913c-.008-.188-.013-.376-.033-.562-.011-.1-.032-.205-.046-.307-.029-.2-.058-.4-.1-.6-.026-.121-.061-.241-.092-.361-.046-.177-.093-.354-.15-.529-.041-.126-.088-.249-.135-.374-.039-.1-.071-.21-.114-.314.04-.016.076-.038.115-.054a8.763,8.763,0,0,0,.941-.44c.017-.009.033-.02.049-.029a8.893,8.893,0,0,0,.835-.535C21.22,7.126,21.262,7.106,21.3,7.079Zm-.511-.535a8.312,8.312,0,0,1-.761.507c-.033.018-.062.041-.094.059a8.153,8.153,0,0,1-1,.438c-.087-.169-.188-.33-.285-.493-.05-.085-.1-.173-.148-.256a9.111,9.111,0,0,0-.617-.853c-.048-.059-.1-.112-.152-.169-.181-.21-.367-.412-.566-.6-.088-.085-.181-.163-.273-.245s-.206-.2-.317-.284A6.9,6.9,0,0,1,20.787,6.544ZM12.8,11.255c.007-.165.01-.331.027-.494.01-.091.029-.181.042-.271.027-.19.054-.379.095-.567.023-.107.055-.213.082-.32.044-.169.089-.338.143-.5.037-.111.081-.222.123-.332s.084-.215.129-.321c.031.009.063.012.094.021a9.2,9.2,0,0,0,1.133.254c.04.006.08.009.12.015a8.056,8.056,0,0,0,2.428,0c.041-.006.081-.009.121-.015a9.142,9.142,0,0,0,1.132-.254c.031-.009.063-.012.094-.021.045.106.089.213.129.321s.086.221.123.332c.054.167.1.336.143.5.027.107.059.213.082.32.041.188.068.377.095.567.013.09.032.18.042.271.017.163.02.329.027.494Zm6.4.709c-.007.165-.01.33-.027.494-.01.091-.029.182-.042.273-.027.189-.054.378-.095.565-.023.108-.055.214-.082.321-.044.168-.089.337-.143.5-.037.111-.081.222-.123.332s-.084.215-.129.321c-.032-.009-.064-.012-.095-.021a8.711,8.711,0,0,0-1.116-.25c-.055-.009-.11-.013-.165-.021a8.958,8.958,0,0,0-1.167-.086h-.037a8.882,8.882,0,0,0-1.162.086c-.057.007-.113.012-.17.021a8.864,8.864,0,0,0-1.112.25c-.033.009-.066.012-.1.021-.045-.106-.089-.213-.129-.321s-.086-.221-.123-.332c-.054-.167-.1-.336-.143-.5-.027-.107-.059-.213-.082-.321-.041-.187-.068-.376-.095-.565-.013-.091-.032-.182-.042-.273-.017-.164-.02-.329-.027-.494ZM16.7,5.707c.075.073.143.155.215.231.143.151.285.3.417.463.078.1.149.2.223.3.114.153.227.307.33.468.07.109.135.223.2.336.052.09.1.183.149.275-.2.058-.406.112-.61.154-.126.026-.25.061-.376.081a8.094,8.094,0,0,1-2.505,0c-.125-.02-.249-.055-.373-.081-.206-.042-.41-.1-.614-.154.049-.093.1-.186.15-.277.064-.112.128-.224.2-.333.105-.162.218-.318.333-.472.073-.1.143-.2.22-.294.133-.162.277-.315.422-.467.071-.075.137-.155.211-.226A8.245,8.245,0,0,1,16,5.092,8.233,8.233,0,0,1,16.7,5.707ZM15.424,4.644c-.111.089-.211.19-.317.284s-.185.16-.273.245c-.2.192-.385.394-.566.6-.049.057-.1.11-.152.169A9.111,9.111,0,0,0,13.5,6.8c-.053.083-.1.171-.148.256-.1.163-.2.324-.285.493a8.153,8.153,0,0,1-1-.438c-.032-.018-.061-.041-.094-.059a8.312,8.312,0,0,1-.761-.507A6.9,6.9,0,0,1,15.424,4.644ZM10.7,7.079c.036.027.078.047.115.074a8.893,8.893,0,0,0,.835.535c.016.009.032.02.049.029a8.763,8.763,0,0,0,.941.44c.039.016.075.038.115.054-.044.1-.075.21-.114.315-.047.124-.094.247-.135.372-.057.176-.1.353-.15.531-.031.12-.066.239-.092.36-.042.2-.072.4-.1.6-.015.1-.035.2-.046.3-.02.187-.025.375-.033.563H9.043A6.93,6.93,0,0,1,10.7,7.079Zm0,9.061a6.932,6.932,0,0,1-1.659-4.176h3.044c.008.188.013.376.033.563.011.1.031.2.046.3.028.2.058.4.1.6.026.12.061.239.092.358.046.178.093.356.15.532.041.125.088.248.135.372.039.105.07.211.114.315-.04.016-.076.038-.115.054a8.854,8.854,0,0,0-.941.44c-.017.009-.032.02-.049.029a9,9,0,0,0-.834.534C10.78,16.092,10.739,16.112,10.7,16.14Zm.511.535a8.1,8.1,0,0,1,.758-.5c.034-.019.064-.044.1-.062a8.059,8.059,0,0,1,1-.438c.087.17.189.332.286.5.05.084.094.171.146.253a8.981,8.981,0,0,0,.619.855c.046.057.1.108.147.164.182.211.37.415.57.608.089.086.183.165.275.246s.206.195.316.284A6.9,6.9,0,0,1,11.213,16.675Zm4.082.836c-.074-.072-.141-.152-.212-.226-.144-.152-.288-.3-.42-.467-.078-.1-.149-.2-.222-.3-.115-.153-.227-.308-.331-.469-.071-.11-.135-.224-.2-.337-.052-.089-.1-.182-.148-.273.2-.058.405-.113.61-.155.126-.025.251-.061.379-.081a8.13,8.13,0,0,1,2.5,0c.127.02.253.056.379.082.2.042.407.1.609.154-.049.091-.1.183-.148.272-.065.114-.13.228-.2.338-.1.161-.216.316-.331.469-.073.1-.144.2-.222.3-.132.162-.275.314-.419.465-.072.076-.139.156-.213.228a8.062,8.062,0,0,1-.7.615A8.062,8.062,0,0,1,15.3,17.511Zm1.28,1.065c.11-.089.21-.189.316-.283s.186-.162.275-.248c.2-.191.386-.394.566-.6.05-.058.1-.11.152-.169a8.982,8.982,0,0,0,.617-.853c.053-.083.1-.171.148-.256.1-.163.2-.323.285-.493a8.346,8.346,0,0,1,1,.437c.034.019.064.043.1.062a8.127,8.127,0,0,1,.759.5A6.9,6.9,0,0,1,16.575,18.576Zm4.608-2.51a8.8,8.8,0,0,0-.84-.538c-.014-.008-.028-.018-.043-.026a8.908,8.908,0,0,0-.944-.441c-.038-.016-.074-.038-.113-.053.043-.1.075-.21.114-.314.047-.124.094-.248.135-.373.057-.176.1-.354.15-.531.031-.12.066-.239.092-.359.042-.2.072-.4.1-.6.015-.1.035-.2.046-.3.02-.186.025-.374.033-.562h3.044A6.932,6.932,0,0,1,21.3,16.14C21.261,16.112,21.22,16.092,21.183,16.066Z"/><path d="M25.005,1.646H7A2.357,2.357,0,0,0,4.641,4V28A2.357,2.357,0,0,0,7,30.354h18.01A2.357,2.357,0,0,0,27.359,28V4A2.357,2.357,0,0,0,25.005,1.646ZM26.65,28a1.648,1.648,0,0,1-1.645,1.646H7A1.648,1.648,0,0,1,5.35,28V4A1.648,1.648,0,0,1,7,2.354h18.01A1.648,1.648,0,0,1,26.65,4Z"/><path d="M11.551,23.529a1.385,1.385,0,0,0-.258-.868,1.171,1.171,0,0,0-.641-.435,5.265,5.265,0,0,0-1.069-.067H8.141v4.452h.9V24.932h.587a5.074,5.074,0,0,0,.932-.064,1.293,1.293,0,0,0,.466-.211,1.226,1.226,0,0,0,.378-.439A1.456,1.456,0,0,0,11.551,23.529Zm-1.028.358a.593.593,0,0,1-.281.219,2.336,2.336,0,0,1-.71.07H9.039V22.912h.435a4.335,4.335,0,0,1,.647.031.622.622,0,0,1,.361.2.576.576,0,0,1,.143.4A.6.6,0,0,1,10.523,23.887Z"/><path d="M13.109,22.159l-1.734,4.452h.953L12.7,25.6h1.779l.389,1.011h.978l-1.783-4.452Zm-.137,2.691.6-1.652.614,1.652Z"/><path d="M19.041,24.153a4.423,4.423,0,0,0-.97-.321,2.364,2.364,0,0,1-.826-.3.342.342,0,0,1-.133-.27.325.325,0,0,1,.142-.277,1.029,1.029,0,0,1,.613-.161.915.915,0,0,1,.57.15.771.771,0,0,1,.248.494l.9-.039a1.292,1.292,0,0,0-.445-.981,1.877,1.877,0,0,0-1.261-.368,2.228,2.228,0,0,0-.876.155,1.207,1.207,0,0,0-.556.451,1.144,1.144,0,0,0-.193.636,1.155,1.155,0,0,0,.41.9,2.433,2.433,0,0,0,1.014.44c.375.094.614.158.72.2a.757.757,0,0,1,.323.192.407.407,0,0,1,.093.269.549.549,0,0,1-.22.43,1,1,0,0,1-.655.184.967.967,0,0,1-.651-.207,1.066,1.066,0,0,1-.321-.647l-.874.086a1.7,1.7,0,0,0,.54,1.137,1.93,1.93,0,0,0,1.3.39,2.528,2.528,0,0,0,.969-.162,1.278,1.278,0,0,0,.6-.5,1.311,1.311,0,0,0,.213-.717,1.33,1.33,0,0,0-.178-.709A1.25,1.25,0,0,0,19.041,24.153Z"/><path d="M23.19,24.153a4.423,4.423,0,0,0-.97-.321,2.372,2.372,0,0,1-.827-.3.345.345,0,0,1-.133-.27.323.323,0,0,1,.143-.277,1.029,1.029,0,0,1,.613-.161.912.912,0,0,1,.569.15.762.762,0,0,1,.248.494l.9-.039a1.292,1.292,0,0,0-.445-.981,1.88,1.88,0,0,0-1.262-.368,2.232,2.232,0,0,0-.876.155,1.217,1.217,0,0,0-.556.451,1.17,1.17,0,0,0,.218,1.532,2.433,2.433,0,0,0,1.014.44c.375.094.614.158.72.2a.757.757,0,0,1,.323.192.407.407,0,0,1,.093.269.549.549,0,0,1-.22.43,1,1,0,0,1-.655.184.965.965,0,0,1-.651-.207,1.061,1.061,0,0,1-.321-.647l-.875.086A1.7,1.7,0,0,0,20.78,26.3a1.93,1.93,0,0,0,1.3.39,2.526,2.526,0,0,0,.968-.162,1.276,1.276,0,0,0,.6-.5,1.31,1.31,0,0,0,.212-.717,1.33,1.33,0,0,0-.177-.709A1.257,1.257,0,0,0,23.19,24.153Z"/></svg>